# xmcd CD database file
#
# Track frame offsets:
#	213
#	13861
#	36125
#	67480
#	92098
#	118489
#	134081
#	157971
#	175212
#	201260
#	215441
#
# Disc length: 3691 seconds
#
# Revision: 0
# Processed by: cddbd v1.4PL0 Copyright (c) Steve Scherf et al.
# Submitted via: CDex 1.50Beta7
#
DISCID=ac0e690b
DTITLE=Various Artist - Festival International De Jazz De Montreal
DYEAR=2003
DGENRE=Jazz
TTITLE0=Denzal Sinclaire - Exactly Like You
TTITLE1=Roy Hargrove presents The RH Factor - How I Know
TTITLE2=Mino Cinelu - Quest
TTITLE3=Wayne Shorter - Angola
TTITLE4=Makato Ozone - Three Wishes
TTITLE5=Lizz Wright - Salt
TTITLE6=Charlie Haden with Michael Brecker - No Lonely Nights
TTITLE7=Marcio Faraco - Elemera
TTITLE8=Beady Belle - Bella
TTITLE9=Metalwood - It's a Bass Thing
TTITLE10=Alain Gerber - Entre le Fleuve et la Montagne
EXTD=YEAR: 2003
EXTT0=
EXTT1=
EXTT2=
EXTT3=
EXTT4=
EXTT5=
EXTT6=
EXTT7=
EXTT8=
EXTT9=
EXTT10=
PLAYORDER=
